<?xml version="1.0" encoding="UTF-8" standalone="no"?>
<svg
   xmlns:dc="http://purl.org/dc/elements/1.1/"
   xmlns:cc="http://creativecommons.org/ns#"
   xmlns:rdf="http://www.w3.org/1999/02/22-rdf-syntax-ns#"
   xmlns:svg="http://www.w3.org/2000/svg"
   xmlns="http://www.w3.org/2000/svg"
   xmlns:sodipodi="http://sodipodi.sourceforge.net/DTD/sodipodi-0.dtd"
   width="129mm"
   height="125mm"
   viewBox="0 0 129 125"
   version="1.1"
   id="svg8"
   sodipodi:docname="logo.svg">
  <g
     id="layer1"
     style="display:inline">
    <g
       id="g899"
       transform="translate(0.61633373,135.4479)">
      <rect
         style="opacity:0.991;fill:#ffffff;stroke:#000000;stroke-width:0.834644;stroke-linecap:round;stroke-linejoin:round;paint-order:markers fill stroke"
         id="rect918"
         width="127.47477"
         height="121.96145"
         x="0.33264104"
         y="-133.39372"
         rx="5.6538601"
         ry="0" />
      <path
         style="fill:#fd962e;stroke-width:0.221381"
         d="m 24.221498,-68.719546 v -52.255204 h 1.296633 1.296633 v 52.255204 52.255209 h -1.296633 -1.296633 z m 9.446896,0 v -52.255204 h 0.648316 0.648316 v 52.255204 52.255209 H 34.31671 33.668394 Z m 14.633426,0 v -52.255204 h 0.648316 0.648317 v 52.255204 52.255209 H 48.950136 48.30182 Z m 10.74353,0 v -52.255204 h 0.5557 0.555699 v 52.255204 52.255209 h -0.555699 -0.5557 z m 11.854922,0 v -52.255204 h 0.648315 0.648315 v 52.255204 52.255209 h -0.648315 -0.648315 z m 26.673586,0 v -52.255204 h 2.037567 2.037565 v 52.255204 52.255209 h -2.037565 -2.037567 z"
         id="path913" />
      <path
         style="fill:#c31529;stroke-width:0.221381"
         d="m 20.3316,-68.719546 v -52.255204 h 1.296633 1.296632 v 52.255204 52.255209 H 21.628233 20.3316 Z m 10.743528,0 v -52.255204 h 1.204016 1.204016 v 52.255204 52.255209 h -1.204016 -1.204016 z m 15.930059,0 v -52.255204 h 0.648316 0.648317 v 52.255204 52.255209 h -0.648317 -0.648316 z m 6.668397,0 v -52.255204 h 0.555699 0.5557 v 52.255204 52.255209 h -0.5557 -0.555699 z m 6.668396,0 v -52.255204 h 1.296631 1.296637 v 52.255204 52.255209 H 61.638611 60.34198 Z m 2.778499,0 v -52.255204 h 3.889898 3.889895 v 52.255204 52.255209 h -3.889895 -3.889898 z m 33.341979,0 v -52.255204 h 0.5557 0.5557 v 52.255204 52.255209 h -0.5557 -0.5557 z"
         id="path911" />
      <path
         style="fill:#aa1f27;stroke-width:0.221381"
         d="m 30.980689,-68.719546 c 10e-7,-28.813125 0.02165,-40.561064 0.04812,-26.106535 0.02646,14.454531 0.02646,38.028904 -6e-6,52.387494 -0.02647,14.3586 -0.04812,2.53216 -0.04812,-26.280959 z m 2.593265,0 c 2e-6,-28.813125 0.02165,-40.561064 0.04812,-26.106535 0.02646,14.454531 0.02646,38.028904 -5e-6,52.387494 -0.02647,14.3586 -0.04812,2.53216 -0.04812,-26.280959 z m 21.301823,0 c 2e-6,-28.813125 0.02166,-40.561064 0.04812,-26.106535 0.02646,14.454531 0.02646,38.028904 -5e-6,52.387494 -0.02647,14.3586 -0.04812,2.53216 -0.04812,-26.280959 z m 5.371768,0 c 0,-28.813125 0.02163,-40.561064 0.0481,-26.106535 0.02646,14.454531 0.02646,38.028904 0,52.387494 -0.02646,14.3586 -0.0481,2.53216 -0.0481,-26.280959 z m 2.778498,0 c 0,-28.813125 0.02163,-40.561064 0.0481,-26.106535 0.02646,14.454531 0.02646,38.028904 0,52.387494 -0.02646,14.3586 -0.0481,2.53216 -0.0481,-26.280959 z m 33.341979,0 c 0,-28.813125 0.02163,-40.561064 0.0481,-26.106535 0.02646,14.454531 0.02646,38.028904 -7e-6,52.387494 -0.02646,14.3586 -0.0481,2.53216 -0.0481,-26.280959 z"
         id="path909" />
      <path
         style="fill:#36862c;stroke-width:0.221381"
         d="m 4.4015412,-68.719546 v -52.255204 h 1.2040156 1.2040163 v 52.255204 52.255209 H 5.6055568 4.4015412 Z m 2.5932649,0 v -52.255204 h 3.2415819 3.241582 v 52.255204 52.255209 H 10.236388 6.9948061 Z m 6.6683969,0 v -52.255204 h 1.944949 1.944949 v 52.255204 52.255209 h -1.944949 -1.944949 z m 4.075132,0 v -52.255204 h 0.555699 0.5557 v 52.255204 52.255209 h -0.5557 -0.555699 z m 1.296632,0 v -52.255204 h 0.5557 0.555699 v 52.255204 52.255209 h -0.555699 -0.5557 z m 4.075132,0 v -52.255204 h 0.555699 0.5557 v 52.255204 52.255209 h -0.5557 -0.555699 z m 3.889898,0 v -52.255204 h 1.944949 1.944949 v 52.255204 52.255209 h -1.944949 -1.944949 z m 7.965029,0 v -52.255204 h 0.648317 0.648316 v 52.255204 52.255209 h -0.648316 -0.648317 z m 1.481866,0 v -52.255204 h 5.186531 5.186531 v 52.255204 52.255209 h -5.186531 -5.186531 z m 13.336794,0 v -52.255204 h 1.852332 1.852333 v 52.255204 52.255209 h -1.852333 -1.852332 z m 5.186531,0 v -52.255204 h 1.944949 1.944946 v 52.255204 52.255209 h -1.944946 -1.944949 z m 17.411923,0 v -52.255204 h 0.5557 0.555699 v 52.255204 52.255209 h -0.555699 -0.5557 z m 1.29663,0 v -52.255204 h 2.593268 2.593268 v 52.255204 52.255209 H 76.272038 73.67877 Z m 5.371766,0 v -52.255204 h 0.5557 0.5557 v 52.255204 52.255209 h -0.5557 -0.5557 z m 1.296631,0 v -52.255204 h 4.630835 4.630829 v 52.255204 52.255209 h -4.630829 -4.630835 z m 9.446895,0 v -52.255204 h 0.555699 0.5557 v 52.255204 52.255209 h -0.5557 -0.555699 z m 1.296637,0 v -52.255204 h 2.593261 2.593267 v 52.255204 52.255209 H 93.68396 91.090699 Z m 10.558291,0 v -52.255204 h 4.63083 4.63083 v 52.255204 52.255209 h -4.63083 -4.63083 z m 9.4469,0 v -52.255204 h 0.5557 0.5557 v 52.255204 52.255209 h -0.5557 -0.5557 z m 1.29663,0 v -52.255204 h 0.5557 0.5557 v 52.255204 52.255209 h -0.5557 -0.5557 z m 1.29663,0 v -52.255204 h 5.0013 5.0013 v 52.255204 52.255209 h -5.0013 -5.0013 z"
         id="path907" />
      <path
         style="fill:#307228;stroke-width:0.221381"
         d="m 4.3071013,-68.719546 c 2.8e-6,-28.813125 0.021661,-40.561064 0.048125,-26.106535 0.026464,14.454531 0.026464,38.028904 -4.2e-6,52.387494 -0.026471,14.3586 -0.048125,2.53216 -0.048118,-26.280959 z m 2.5932656,0 c 2.1e-6,-28.813125 0.021661,-40.561064 0.048124,-26.106535 0.026464,14.454531 0.026464,38.028904 -4.2e-6,52.387494 -0.026471,14.3586 -0.048124,2.53216 -0.048117,-26.280959 z m 6.6683971,0 c 2e-6,-28.813125 0.02165,-40.561064 0.04812,-26.106535 0.02646,14.454531 0.02646,38.028904 -5e-6,52.387494 -0.02647,14.3586 -0.04812,2.53216 -0.04812,-26.280959 z m 4.075131,0 c 3e-6,-28.813125 0.02166,-40.561064 0.04812,-26.106535 0.02646,14.454531 0.02646,38.028904 -4e-6,52.387494 -0.02647,14.3586 -0.04812,2.53216 -0.04812,-26.280959 z m 1.296633,0 c 2e-6,-28.813125 0.02166,-40.561064 0.04812,-26.106535 0.02646,14.454531 0.02646,38.028904 -5e-6,52.387494 -0.02647,14.3586 -0.04812,2.53216 -0.04812,-26.280959 z m 4.075132,0 c 1e-6,-28.813125 0.02165,-40.561064 0.04812,-26.106535 0.02646,14.454531 0.02646,38.028904 -6e-6,52.387494 -0.02647,14.3586 -0.04812,2.53216 -0.04812,-26.280959 z m 13.336793,0 c 1e-6,-28.813125 0.02165,-40.561064 0.04813,-26.106535 0.02646,14.454531 0.02646,38.028904 -6e-6,52.387494 -0.02647,14.3586 -0.04812,2.53216 -0.04812,-26.280959 z m 13.336794,0 c 10e-7,-28.813125 0.02165,-40.561064 0.04812,-26.106535 0.02646,14.454531 0.02646,38.028904 -5e-6,52.387494 -0.02647,14.3586 -0.04812,2.53216 -0.04812,-26.280959 z m 23.895088,0 c 0,-28.813125 0.02163,-40.561064 0.0481,-26.106535 0.02646,14.454531 0.02646,38.028904 -7e-6,52.387494 -0.02646,14.3586 -0.0481,2.53216 -0.0481,-26.280959 z m 5.371759,0 c 7e-6,-28.813125 0.02163,-40.561064 0.0481,-26.106535 0.02646,14.454531 0.02646,38.028904 -7e-6,52.387494 -0.02646,14.3586 -0.0481,2.53216 -0.0481,-26.280959 z m 1.296637,0 c 0,-28.813125 0.02163,-40.561064 0.0481,-26.106535 0.02646,14.454531 0.02646,38.028904 -7e-6,52.387494 -0.02646,14.3586 -0.0481,2.53216 -0.0481,-26.280959 z m 9.446895,0 c 0,-28.813125 0.02163,-40.561064 0.0481,-26.106535 0.02646,14.454531 0.02646,38.028904 -7e-6,52.387494 -0.02646,14.3586 -0.0481,2.53216 -0.0481,-26.280959 z m 1.29663,0 c 0,-28.813125 0.02163,-40.561064 0.0481,-26.106535 0.02646,14.454531 0.02646,38.028904 -7e-6,52.387494 -0.02646,14.3586 -0.0481,2.53216 -0.0481,-26.280959 z m 20.005194,0 c 0,-28.813125 0.0216,-40.561064 0.0481,-26.106535 0.0265,14.454531 0.0265,38.028904 0,52.387494 -0.0265,14.3586 -0.0481,2.53216 -0.0481,-26.280959 z m 1.29663,0 c 0,-28.813125 0.0216,-40.561064 0.0481,-26.106535 0.0265,14.454531 0.0265,38.028904 -1e-5,52.387494 -0.0265,14.3586 -0.0481,2.53216 -0.0481,-26.280959 z m 1.29663,0 c 0,-28.813125 0.0216,-40.561064 0.0481,-26.106535 0.0265,14.454531 0.0265,38.028904 -1e-5,52.387494 -0.0265,14.3586 -0.0481,2.53216 -0.0481,-26.280959 z"
         id="path903" />
    </g>
  </g>
</svg>
